<svg width="32" height="32" viewBox="0 0 32 32" fill="none" xmlns="http://www.w3.org/2000/svg"><path d="M30.564 8.814a3.724 3.724 0 00-.984-1.673 3.824 3.824 0 00-1.703-.968C25.506 5.55 16 5.55 16 5.55s-9.507 0-11.877.623a3.824 3.824 0 00-1.703.968 3.725 3.725 0 00-.984 1.673C.8 11.14.8 15.999.8 15.999s0 4.858.636 7.187c.173.633.512 1.21.984 1.673a3.823 3.823 0 001.703.966C6.494 26.45 16 26.45 16 26.45s9.507 0 11.877-.625a3.823 3.823 0 001.703-.966c.472-.464.811-1.04.984-1.673.636-2.329.636-7.187.636-7.187s0-4.857-.636-7.185z" fill="#050505"/><path d="M12.96 11.521v8.958L20.857 16l-7.897-4.479z" fill="#FAFAFA"/></svg>