<svg width="32" height="32" viewBox="0 0 32 32" fill="none" xmlns="http://www.w3.org/2000/svg"><path d="M10.72 9.208v.533c.001.447-.006.895.01 1.343.008.098.013.198.037.294.028.11.082.216.163.298.075.08.175.133.284.151.083.053.154.122.223.192l.083.084v5.337h2.732l-.053-6.076a12.842 12.842 0 01-.16-.324c-.1-.206-.199-.412-.32-.606a2.6 2.6 0 00-1.13-.985 3.37 3.37 0 00-.224-.093 4.714 4.714 0 00-.877-.213c-.1-.016-.2-.03-.299-.047l-.469-.076v.188zm-6.082.313l.012 2.672c.005.945.01 1.89.017 2.836l.012 1.751.004.608.43.01h.027l.109.004h.014l.122.004c.388.011.775.025 1.163.027h.014c.045 0 .09-.002.135-.004a.895.895 0 00.305-.061.618.618 0 00.113-.062c.125.073.257.136.395.18.096.03.193.056.29.075.3.059.608.06.91.015a3.218 3.218 0 001.194-.439 2.988 2.988 0 00.984-1.049c.097-.182.164-.38.2-.584.083-.447.095-.904.057-1.356a4.42 4.42 0 00-.058-.447 2.581 2.581 0 00-.25-.744 3.355 3.355 0 00-.132-.22 3.28 3.28 0 00-.72-.805 1.637 1.637 0 00-.148-.106 2.575 2.575 0 00-.73-.307 2.903 2.903 0 00-1.253-.056 2.51 2.51 0 00-.494.142V9.36H4.638v.16zm19.147 1.891a3.214 3.214 0 00-1.54.423 2.59 2.59 0 00-1.11 1.301c-.104.26-.173.533-.212.809a2.92 2.92 0 00-.438-1.005 3.2 3.2 0 00-.698-.74 3.594 3.594 0 00-2.022-.73 3.402 3.402 0 00-2.108.642 3.165 3.165 0 00-.725.719c-.192.263-.335.56-.423.874a2.32 2.32 0 00-.07.396 5.8 5.8 0 00-.031.743c.002.068.008.135.018.202.028.18.086.353.157.52a5.1 5.1 0 00.136.29c.258.472.614.88 1.045 1.2.255.185.539.325.84.414a3.636 3.636 0 001.31.141c.378-.023.75-.107 1.101-.247a1.76 1.76 0 00.154-.069c.22-.113.428-.251.62-.408.175-.142.338-.299.49-.466a2.84 2.84 0 00.634-1.21c.033.309.105.616.233.9.08.18.183.348.308.498.17.202.37.375.593.514.23.147.479.264.733.364.11.043.224.075.34.097v2.532l.427-.018.043-.002.043-.002h.014l.092-.004c.398-.015.796-.026 1.193-.052a2.177 2.177 0 00.99-.305 3.177 3.177 0 00.77-.626 2.61 2.61 0 00.413-.652c.046-.106.081-.216.107-.328a4.9 4.9 0 00.113-.89c.008-.152.013-.304.019-.456.021-.968.015-1.936.016-2.904V11.52h-2.64v.07a2.38 2.38 0 00-.935-.178zM17.808 14a.26.26 0 01.093.015c.01.006.018.016.028.023.106.094.206.194.294.304.012.021.014.046.016.07.004.061-.002.122-.006.183a.626.626 0 01-.227.4.523.523 0 01-.505.087.581.581 0 01-.293-.234.554.554 0 01.054-.644.456.456 0 01.22-.173.44.44 0 01.09-.02c.067-.008.135-.012.203-.011h.033zm6.417.006c.05 0 .1.007.148.022a.53.53 0 01.315.282.547.547 0 01.035.43.424.424 0 01-.059.108l-.008.01a.628.628 0 01-.243.186.883.883 0 01-.209.064.378.378 0 01-.137-.03 1.634 1.634 0 01-.147-.067.478.478 0 01-.18-.225.607.607 0 01-.029-.372.491.491 0 01.074-.163.53.53 0 01.44-.245zm-16.268.088c.055 0 .11.01.16.032a.474.474 0 01.258.261.53.53 0 01-.07.473.556.556 0 01-.229.143.746.746 0 01-.309.036.317.317 0 01-.204-.12.488.488 0 01-.112-.273.553.553 0 01.066-.327.397.397 0 01.146-.148.57.57 0 01.294-.077z" fill="#FAFAFA"/><path d="M15.728 30.224c-.136-.128-.608-1.152-1.496-3.24l-1.296-3.064H9.08c-2.232 0-4.04-.032-4.288-.08-.64-.12-1.504-.576-1.968-1.04-.472-.472-.928-1.296-1.056-1.904-.064-.288-.088-2.512-.088-7.08 0-5.728.016-6.728.12-7.136.384-1.472 1.608-2.6 3.08-2.832.72-.12 21.528-.12 22.24 0a3.806 3.806 0 013.04 2.608c.152.504.16.736.16 7.336 0 4.296-.032 6.936-.088 7.16-.216.952-1.032 2.008-1.896 2.472-.888.472-1.104.496-5.344.496h-3.848l-1.296 3.064c-.72 1.68-1.36 3.112-1.432 3.184-.24.24-.464.256-.688.056zM25.68 19.32c.24-.136.552-.392.696-.584.472-.624.504-.856.504-3.952V12H25.2v.504l-.176-.16c-.44-.4-1.032-.536-1.712-.4-1.28.264-1.952 1.176-1.952 2.648 0 1.232.336 1.848 1.248 2.296.408.2.616.256.976.256.576-.008 1.056-.136 1.336-.36l.224-.176-.056.352c-.112.696-.48 1.04-1.12 1.04H23.6v1.616l.824-.032c.72-.024.864-.056 1.256-.264zM9.408 16.864a2.441 2.441 0 001.104-1.096c.224-.504.232-1.696.016-2.32-.16-.472-.648-1.064-1.04-1.272-.816-.424-1.856-.352-2.424.168l-.184.16V9.84H5.12l.016 3.543.024 3.537.864.024c.816.024.856.016.856-.144 0-.2.024-.2.392.04.56.376 1.376.384 2.136.024zm9.368.08c.488-.176 1.152-.744 1.416-1.216.872-1.52-.12-3.36-2.008-3.728-1.184-.232-2.464.344-3.024 1.368-.176.336-.24.56-.264 1.04-.032.536-.008.664.184 1.096.232.52.76 1.088 1.24 1.336.696.36 1.656.4 2.456.104zm-5.032-2.728l-.024-2.736-.264-.536c-.368-.744-.952-1.144-1.912-1.304l-.344-.056v.888c0 .76.016.888.128.888.072 0 .248.12.4.272l.272.272v5.056h1.768l-.024-2.744z" fill="#050505"/><path d="M23.784 15.48c-.528-.225-.736-.944-.424-1.457a.992.992 0 011.776.112c.248.569 0 1.152-.6 1.377-.296.111-.44.104-.752-.033zm-16.408-.088c-.592-.409-.528-1.369.112-1.673.88-.416 1.72.456 1.272 1.32-.224.44-.984.632-1.384.353zm9.768.048a1.019 1.019 0 01-.32-1.449c.232-.344.48-.471.928-.471.296 0 .392.04.656.311.264.264.312.36.312.656 0 .856-.872 1.384-1.576.953z" fill="#050505"/></svg>