<?xml version="1.0" encoding="utf-8"?>
<!-- Generator: Adobe Illustrator 27.4.0, SVG Export Plug-In . SVG Version: 6.00 Build 0)  -->
<svg version="1.1" id="레이어_1" xmlns="http://www.w3.org/2000/svg" xmlns:xlink="http://www.w3.org/1999/xlink" x="0px"
	 y="0px" viewBox="0 0 414 188" style="enable-background:new 0 0 414 188;" xml:space="preserve">
<style type="text/css">
	.st0{fill:#F27405;}
	.st1{fill:#FAFAFA;}
</style>
<path class="st0" d="M0,0h414v188H0V0z"/>
<path class="st1" d="M192,25.7h15v136.7h-15V25.7z M199,0h1v188h-1V0z"/>
<path class="st1" d="M168,34.7h15v118.6h-15V34.7z M175,12.4h1v163.1h-1V12.4z"/>
<path class="st1" d="M144,21.8h15v94.9h-15V21.8z M151,4h1v130.6h-1V4z"/>
<path class="st1" d="M120,31.1h15v125.8h-15V31.1z M127,7.4h1v173.1h-1V7.4z"/>
<path class="st1" d="M96,39.4h15v109.2H96V39.4z M103,18.9h1v150.2h-1V18.9z"/>
<path class="st1" d="M72,31.1h15v125.8H72V31.1z M79,7.4h1v173.1h-1V7.4z"/>
<path class="st1" d="M48,46.1h15v109H48V46.1z M55,25.7h1v149.9h-1V25.7z"/>
<path class="st1" d="M24,18.9h15v100.7H24V18.9z M31,0h1v138.6h-1V0z"/>
<path class="st1" d="M0,53.4h15v81.3H0V53.4z M7,38.1h1v111.8H7V38.1z"/>
</svg>
